<svg id="Layer_1" data-name="Layer 1" xmlns="http://www.w3.org/2000/svg" viewBox="0 0 550 108.66"><defs><style>.cls-1{fill:#fff;}</style></defs><title>Edukate_Logo_White_RGB</title><polygon class="cls-1" points="25.14 83.66 67.64 83.66 67.64 73.73 35.07 73.73 35.07 61.28 62.68 61.28 62.68 51.35 35.07 51.35 35.07 34.93 67.64 34.93 67.64 25 25.14 25 25.14 83.66"/><path class="cls-1" d="M104.56,25H82.09V83.66h22.47c16.69,0,30.14-13.18,30.14-29.33S121.25,25,104.56,25Zm0,48.73H92V34.93h12.55c11.19,0,20.21,8.75,20.21,19.4S115.75,73.73,104.56,73.73Z"/><path class="cls-1" d="M185.86,59.56c0,8.4-7.13,15.16-15.88,15.16S154.1,68,154.1,59.56V25h-9.93V59.56c0,13.81,11.55,25.09,25.81,25.09s25.81-11.28,25.81-25.09V25h-9.93Z"/><polygon class="cls-1" points="296.77 25 285.67 25 260.23 83.66 260.29 83.66 260.21 83.86 271.04 83.86 291.12 37.67 311.37 83.86 311.37 83.86 322.2 83.86 322.12 83.66 322.22 83.66 296.77 25"/><polygon class="cls-1" points="334.32 41.8 334.3 41.8 334.3 83.86 344.22 83.86 344.22 83.66 344.24 83.66 344.24 41.61 334.32 41.61 334.32 41.8"/><polygon class="cls-1" points="315.46 25.2 315.44 25.2 315.44 35.13 363.08 35.13 363.08 34.93 363.1 34.93 363.1 25 315.46 25 315.46 25.2"/><polygon class="cls-1" points="372.58 25.2 372.56 25.2 372.56 35.13 415.06 35.13 415.06 34.93 415.08 34.93 415.08 25 372.58 25 372.58 25.2"/><polygon class="cls-1" points="372.58 73.93 372.56 73.93 372.56 83.86 415.06 83.86 415.06 83.66 415.08 83.66 415.08 73.73 372.58 73.73 372.58 73.93"/><path class="cls-1" d="M430.88,72.47A5.86,5.86,0,0,0,425,78.33v.46a5.91,5.91,0,0,0,11.82,0v-.46A5.87,5.87,0,0,0,430.88,72.47Z"/><path class="cls-1" d="M470.4,25,445,83.66h10.82l5.15-11.82H491l5.14,11.82H507L481.5,25Zm-5.14,36.91L476,37.19l10.74,24.72Z"/><rect class="cls-1" x="515.07" y="25" width="9.93" height="58.65"/><polygon class="cls-1" points="410.1 59.74 410.12 59.74 410.12 57.76 410.12 49.82 372.58 49.82 372.58 50.02 372.56 50.02 372.56 59.94 410.1 59.94 410.1 59.74"/><polygon class="cls-1" points="245.54 25 220.19 53.16 245.91 83.86 258.67 83.86 233.87 52.81 259.03 25 245.54 25"/><polygon class="cls-1" points="210.23 25 210.23 83.86 220.19 83.86 220.19 68.01 220.19 53.16 220.19 25 210.23 25"/></svg>